<?xml version="1.0" encoding="utf-8"?>
<!-- Generator: Adobe Illustrator 17.0.0, SVG Export Plug-In . SVG Version: 6.00 Build 0)  -->
<!DOCTYPE svg PUBLIC "-//W3C//DTD SVG 1.1//EN" "http://www.w3.org/Graphics/SVG/1.1/DTD/svg11.dtd">
<svg version="1.1" id="Layer_1" xmlns="http://www.w3.org/2000/svg" xmlns:xlink="http://www.w3.org/1999/xlink" x="0px" y="0px"
	 width="300px" height="300px" viewBox="0 0 300 300" enable-background="new 0 0 300 300" xml:space="preserve">
<g>
	<g>
		<circle fill="#259DC1" cx="150" cy="150" r="150"/>
		<path fill="#30A9DB" d="M150,275c-68.924,0-125-56.076-125-125S81.076,25,150,25c68.927,0,125,56.075,125,125S218.927,275,150,275
			z"/>
	</g>
	<g>
		<polygon opacity="0.3" enable-background="new    " points="180.092,86.014 180.092,120.083 214.135,120.083 		"/>
		<path opacity="0.3" enable-background="new    " d="M174.467,125.708V84.375H93.6V225h122.175v-99.292H174.467z M178.155,201.702
			l-3.977-3.977l18.979-18.979h-57.343v-5.625h57.343l-18.979-18.977l3.977-3.977l25.769,25.767L178.155,201.702z"/>
	</g>
	<g>
		<polygon fill="#FFFFFF" points="175.404,81.327 175.404,115.396 209.447,115.396 		"/>
		<path fill="#FFFFFF" d="M169.779,121.021V79.688H88.912v140.625h122.175v-99.292H169.779z M173.468,197.015l-3.977-3.977
			l18.979-18.979h-57.343v-5.625h57.343l-18.979-18.977l3.977-3.977l25.769,25.767L173.468,197.015z"/>
	</g>
</g>
</svg>
